# xmcd
#
# Track frame offsets:
#	150
#	23320
#	44070
#	62540
#	79420
#	99815
#	118440
#	131837
#	147692
#	163355
#	180182
#	199750
#	219200
#	237055
#	256162
#	273607
#
# Disc length: 3944 seconds
#
# Revision: 0
# Processed by: cddbd v1.5.2PL0 Copyright (c) Steve Scherf et al.
# Submitted via: audiograbber 1.83.01
#
DISCID=e60f6610
DTITLE=LeAnn Rimes - Sittin' On Top Of The World
DYEAR=1998
DGENRE=Country
TTITLE0=How Do I Live
TTITLE1=Commitment
TTITLE2=Looking Through Your Eyes
TTITLE3=Undeniable
TTITLE4=Feels Like Home
TTITLE5=Surrender
TTITLE6=These Arms Of Mine
TTITLE7=Nothin' New Under The Moon
TTITLE8=When Am I Gonna Get Over You
TTITLE9=Rock Me
TTITLE10=More Than Anyone Deserves
TTITLE11=Insensitive
TTITLE12=All The Lovin' And Hurtin'
TTITLE13=Sittin' On Top Of The World
TTITLE14=The Heart Never Forgets
TTITLE15=Purple Rain
EXTD=
EXTT0=
EXTT1=
EXTT2=
EXTT3=
EXTT4=
EXTT5=
EXTT6=
EXTT7=
EXTT8=
EXTT9=
EXTT10=
EXTT11=
EXTT12=
EXTT13=
EXTT14=
EXTT15=
PLAYORDER=
